<svg width="36" height="36" viewBox="0 0 36 36" fill="none" xmlns="http://www.w3.org/2000/svg">
<path opacity="0.95" fill-rule="evenodd" clip-rule="evenodd" d="M36 34.4329C36 34.6463 36 34.8597 36 35.0732C35.8788 35.2896 35.6913 35.42 35.4375 35.4644C23.8125 35.5119 12.1875 35.5119 0.5625 35.4644C0.308722 35.42 0.121222 35.2896 0 35.0732C0 34.8597 0 34.6463 0 34.4329C0.11033 34.2388 0.274392 34.1084 0.492188 34.0416C1.03074 34.0061 1.5698 33.9943 2.10938 34.0061C2.07607 30.2334 2.11122 26.4631 2.21484 22.6951C2.51253 21.8248 3.11019 21.315 4.00781 21.1656C4.47597 21.1301 4.94473 21.1183 5.41406 21.1301C5.40234 18.735 5.41406 16.34 5.44922 13.9451C5.56955 12.9695 6.0969 12.3412 7.03125 12.06C7.92155 12.0244 8.8122 12.0125 9.70312 12.0244C9.70312 11.3367 9.70312 10.6491 9.70312 9.96138C8.31445 9.56137 7.58791 8.62469 7.52344 7.15142C7.55768 6.69435 7.66315 6.25566 7.83984 5.83536C8.50781 4.48374 9.17578 3.13211 9.84375 1.78049C10.2773 1.38411 10.6874 1.40783 11.0742 1.85163C11.8396 3.40022 12.5661 4.96526 13.2539 6.54674C13.4565 8.04563 12.9058 9.14827 11.6016 9.85467C11.4654 9.91251 11.3248 9.94807 11.1797 9.96138C11.1797 10.6491 11.1797 11.3367 11.1797 12.0244C13.2188 12.0244 15.2578 12.0244 17.2969 12.0244C17.3086 11.0282 17.2969 10.0322 17.2617 9.03658C15.4697 8.32719 14.8134 7.02301 15.293 5.12398C15.977 3.66876 16.6801 2.22228 17.4023 0.784553C17.8008 0.405149 18.1992 0.405149 18.5977 0.784553C19.3199 2.22228 20.023 3.66876 20.707 5.12398C21.1866 7.02301 20.5303 8.32719 18.7383 9.03658C18.7031 10.0322 18.6914 11.0282 18.7031 12.0244C20.7422 12.0244 22.7812 12.0244 24.8203 12.0244C24.8203 11.3367 24.8203 10.6491 24.8203 9.96138C23.6888 9.65819 22.9973 8.92304 22.7461 7.75609C22.6723 7.17539 22.7192 6.60631 22.8867 6.04878C23.5664 4.64972 24.2461 3.25068 24.9258 1.85163C25.3126 1.40783 25.7227 1.38411 26.1562 1.78049C26.8242 3.13211 27.4922 4.48374 28.1602 5.83536C28.7645 7.36768 28.4247 8.63629 27.1406 9.64126C26.8803 9.80871 26.599 9.91542 26.2969 9.96138C26.2969 10.6491 26.2969 11.3367 26.2969 12.0244C27.1878 12.0125 28.0785 12.0244 28.9688 12.06C29.9031 12.3412 30.4305 12.9695 30.5508 13.9451C30.5859 16.34 30.5977 18.735 30.5859 21.1301C31.2528 21.0902 31.909 21.1495 32.5547 21.3079C33.163 21.5913 33.5732 22.0537 33.7852 22.6951C33.8888 26.4631 33.924 30.2334 33.8906 34.0061C34.5059 33.9769 35.1152 34.0125 35.7188 34.1128C35.8291 34.2122 35.9229 34.3189 36 34.4329ZM17.9297 3.06097C17.9913 3.05166 18.0382 3.07538 18.0703 3.13211C18.4804 3.96206 18.8906 4.792 19.3008 5.62195C19.5558 6.74147 19.1222 7.40545 18 7.61382C16.8778 7.40545 16.4442 6.74147 16.6992 5.62195C17.1293 4.77544 17.5395 3.92178 17.9297 3.06097ZM10.4062 3.98577C10.8557 4.82394 11.2893 5.6776 11.707 6.54674C12.0001 7.70786 11.5665 8.39548 10.4062 8.60975C9.53684 8.47708 9.06813 7.9673 9 7.08028C9.43502 6.03246 9.90373 5.00095 10.4062 3.98577ZM25.5234 3.98577C25.8033 4.409 26.0494 4.85954 26.2617 5.3374C26.5373 5.90669 26.7834 6.48765 27 7.08028C26.8553 8.23165 26.2225 8.70586 25.1016 8.50304C24.2722 8.09749 24.0026 7.44536 24.293 6.54674C24.7231 5.70024 25.1332 4.84658 25.5234 3.98577ZM7.3125 13.5183C14.4375 13.5064 21.5625 13.5183 28.6875 13.5539C28.9099 13.6591 29.0388 13.837 29.0742 14.0874C29.1094 14.8458 29.1211 15.6046 29.1094 16.3638C28.4041 16.5574 27.701 16.5455 27 16.3282C26.2749 15.9275 25.5483 15.5244 24.8203 15.1189C23.338 14.6054 21.9083 14.724 20.5312 15.4746C18.8438 16.8499 17.1562 16.8499 15.4688 15.4746C14.0917 14.724 12.662 14.6054 11.1797 15.1189C10.4517 15.5244 9.72513 15.9275 9 16.3282C8.29898 16.5455 7.59586 16.5574 6.89062 16.3638C6.87892 15.6046 6.89064 14.8458 6.92578 14.0874C6.96972 13.8307 7.09861 13.6409 7.3125 13.5183ZM12.5156 16.2927C13.0402 16.2737 13.5558 16.3329 14.0625 16.4705C14.789 16.8737 15.5156 17.2767 16.2422 17.6799C17.76 18.2094 19.2132 18.0671 20.6016 17.253C22.2836 15.9543 23.9476 15.978 25.5938 17.3242C26.694 17.9389 27.8658 18.1404 29.1094 17.9289C29.1094 18.9959 29.1094 20.063 29.1094 21.1301C24.4453 21.1182 19.7812 21.1301 15.1172 21.1656C14.5551 21.3808 14.4027 21.7721 14.6602 22.3394C14.7712 22.449 14.9001 22.5321 15.0469 22.5884C20.6485 22.6121 26.25 22.6359 31.8516 22.6595C32.1525 22.7505 32.3283 22.9521 32.3789 23.2642C32.4141 24.0938 32.4258 24.9238 32.4141 25.7541C31.9771 25.7946 31.5552 25.9013 31.1484 26.0742C30.5151 26.4895 29.8588 26.8689 29.1797 27.2124C28.3977 27.4617 27.6243 27.438 26.8594 27.1412C26.1441 26.72 25.4175 26.317 24.6797 25.9319C23.2358 25.4908 21.8531 25.633 20.5312 26.3587C19.4109 27.3371 18.1453 27.598 16.7344 27.1412C16.0781 26.7619 15.4219 26.3824 14.7656 26.003C13.7024 25.6369 12.6243 25.5895 11.5312 25.8608C10.7006 26.2279 9.90373 26.6547 9.14062 27.1412C8.3757 27.438 7.60226 27.4617 6.82031 27.2124C6.14116 26.8689 5.48492 26.4895 4.85156 26.0742C4.4448 25.9013 4.02293 25.7946 3.58594 25.7541C3.55624 24.8249 3.5914 23.9001 3.69141 22.9797C3.77344 22.8966 3.85547 22.8137 3.9375 22.7307C5.92535 22.6376 7.91754 22.5902 9.91406 22.5884C10.5029 22.1949 10.5497 21.7443 10.0547 21.2368C9.00408 21.1348 7.94939 21.0992 6.89062 21.1301C6.89062 20.063 6.89062 18.9959 6.89062 17.9289C8.13417 18.1404 9.306 17.9389 10.4062 17.3242C11.0329 16.8055 11.736 16.4617 12.5156 16.2927ZM12.5156 27.1768C13.0411 27.1511 13.5567 27.2104 14.0625 27.3547C14.7876 27.7555 15.5142 28.1585 16.2422 28.564C17.4141 28.9908 18.5859 28.9908 19.7578 28.564C20.437 28.2206 21.0932 27.8412 21.7266 27.4258C22.5943 27.0939 23.4615 27.0939 24.3281 27.4258C25.0231 27.8841 25.7496 28.2873 26.5078 28.6351C28.3217 29.1591 29.9623 28.8271 31.4297 27.6392C31.7189 27.4691 32.0235 27.3387 32.3438 27.248C32.4141 29.5002 32.4375 31.7528 32.4141 34.0061C22.8047 34.0061 13.1953 34.0061 3.58594 34.0061C3.56251 31.7528 3.58594 29.5002 3.65625 27.248C3.97646 27.3387 4.28115 27.4691 4.57031 27.6392C6.11425 28.872 7.82515 29.1803 9.70312 28.564C10.3594 28.1846 11.0156 27.8052 11.6719 27.4258C11.9561 27.3197 12.2374 27.2367 12.5156 27.1768Z" fill="#7F2847"/>
<path opacity="0.881" fill-rule="evenodd" clip-rule="evenodd" d="M13.4297 17.3597C14.0845 17.3227 14.4009 17.631 14.379 18.2845C14.1135 18.8561 13.7034 18.9864 13.1485 18.6757C12.9474 18.4139 12.8888 18.1174 12.9727 17.7865C13.0778 17.5863 13.2301 17.444 13.4297 17.3597Z" fill="#7F2847"/>
<path opacity="0.895" fill-rule="evenodd" clip-rule="evenodd" d="M22.5 18.3556C23.2728 18.2483 23.6126 18.5802 23.5196 19.3515C23.1736 19.8896 22.7517 19.9608 22.2539 19.5649C21.9933 19.0881 22.0753 18.685 22.5 18.3556Z" fill="#7F2847"/>
<path opacity="0.883" fill-rule="evenodd" clip-rule="evenodd" d="M12.2344 21.1301C13.0178 21.1279 13.3107 21.5073 13.1133 22.2683C12.8716 22.5942 12.5551 22.7009 12.1641 22.5885C11.7756 22.3808 11.6467 22.0607 11.7773 21.6281C11.8775 21.4071 12.0299 21.2411 12.2344 21.1301Z" fill="#7F2847"/>
<path opacity="0.881" fill-rule="evenodd" clip-rule="evenodd" d="M13.5 29.5244C14.2834 29.5222 14.5763 29.9016 14.3789 30.6626C14.0823 31.0276 13.7191 31.1105 13.289 30.9116C13.0247 30.6453 12.9427 30.3252 13.0429 29.9513C13.148 29.7511 13.3003 29.6088 13.5 29.5244Z" fill="#7F2847"/>
<path opacity="0.89" fill-rule="evenodd" clip-rule="evenodd" d="M29.6718 29.9512C30.4241 29.9881 30.6936 30.3675 30.4804 31.0894C30.0044 31.5819 29.559 31.5582 29.1445 31.0182C29.0256 30.5 29.2014 30.1443 29.6718 29.9512Z" fill="#7F2847"/>
<path opacity="0.884" fill-rule="evenodd" clip-rule="evenodd" d="M5.90629 31.6586C6.67676 31.6065 6.99316 31.9622 6.85551 32.7256C6.44099 33.2656 5.99568 33.2893 5.51957 32.7968C5.33429 32.3038 5.4632 31.9244 5.90629 31.6586Z" fill="#7F2847"/>
<path opacity="0.883" fill-rule="evenodd" clip-rule="evenodd" d="M21.5859 31.6584C22.5413 31.6831 22.7991 32.1218 22.3594 32.9745C21.5814 33.3296 21.1712 33.0806 21.1289 32.2276C21.2207 31.9813 21.373 31.7916 21.5859 31.6584Z" fill="#7F2847"/>
</svg>
