<svg width="346" height="260" viewBox="0 0 346 260" fill="none" xmlns="http://www.w3.org/2000/svg">
<path d="M138.171 25.079C133.964 32.2708 141.885 44.3885 133.902 46.9048L134.56 46.2521C139.379 40.3698 129.306 27.9196 134.125 22.0373C134.874 21.1744 135.517 20.2263 136.04 19.2129" fill="#755560"/>
<path d="M177.568 130.588C177.706 129.868 177.683 129.128 177.501 128.418C177.319 127.708 176.983 127.046 176.515 126.479C176.048 125.912 175.461 125.453 174.796 125.136C174.13 124.818 173.403 124.649 172.665 124.641L162.266 94.6606L156.51 101.941L167.505 129.955C167.573 131.186 168.094 132.35 168.969 133.226C169.844 134.102 171.012 134.629 172.253 134.707C173.493 134.785 174.719 134.409 175.699 133.65C176.678 132.891 177.343 131.801 177.568 130.588Z" fill="#FFB8B8"/>
<path d="M131.859 58.2033C131.859 58.2033 131.535 47.3508 141.315 53.5678C151.094 59.7848 172.386 118.023 172.386 118.023L161.79 123.712L137.736 70.4174L131.859 58.2033Z" fill="#7F2847"/>
<path d="M160.71 244.208L155.827 246.279L145.454 228.573L152.662 225.516L160.71 244.208Z" fill="#FFB6B6"/>
<path d="M166.903 251.512L163.401 252.997L161.363 249.981L161.175 253.941L151.887 257.879C151.442 258.068 150.947 258.111 150.476 258.001C150.005 257.891 149.581 257.635 149.267 257.269C148.953 256.904 148.765 256.448 148.73 255.969C148.695 255.49 148.816 255.012 149.074 254.605L154.302 246.377L152.874 243.06L160.875 240.213L166.903 251.512Z" fill="#755560"/>
<path d="M84.1596 250.214L78.8557 249.957L77.3311 229.532L85.1598 229.912L84.1596 250.214Z" fill="#FFB6B6"/>
<path d="M86.51 259.47L82.7063 259.286L82.2028 255.689L80.2884 259.168L70.1999 258.679C69.7163 258.656 69.2529 258.479 68.8774 258.176C68.5019 257.873 68.2339 257.458 68.1125 256.993C67.9912 256.528 68.0228 256.037 68.2029 255.591C68.3829 255.145 68.7019 254.767 69.1132 254.514L77.4416 249.383L77.619 245.78L86.0682 246.693L86.51 259.47Z" fill="#755560"/>
<path d="M240.441 246.96C240.792 246.973 241.139 246.878 241.434 246.689C241.729 246.499 241.959 246.224 242.091 245.901C242.224 245.578 242.253 245.222 242.175 244.882C242.097 244.542 241.915 244.234 241.655 243.999C241.61 243.829 241.578 243.707 241.533 243.537C241.861 242.686 242.437 241.952 243.188 241.429C243.939 240.906 244.831 240.617 245.748 240.6C246.666 240.583 247.567 240.838 248.338 241.332C249.108 241.827 249.712 242.539 250.072 243.376C252.15 248.077 254.826 252.938 253.568 258.15C262.033 239.898 258.878 217.324 245.962 201.906C242.414 200.01 239.521 196.61 238.738 192.637C240.49 193.208 242.654 191.777 241.324 189.964C240.748 189.272 240.166 188.585 239.59 187.892C246.158 180.818 254.169 191.763 246.957 201.296C249.374 204.246 251.474 207.438 253.223 210.822C252.792 207.216 253.23 203.56 254.5 200.155C255.791 196.98 258.241 194.294 260.395 191.54C263.014 188.184 268.484 189.669 268.881 193.892C266.443 194.713 266.158 198.223 268.961 198.676C268.304 206.546 263.197 213.821 256.1 217.337C258.803 224.643 259.906 232.437 259.336 240.2C260.507 231.123 270.291 228.831 277.11 225.163C277.544 224.881 278.051 224.731 278.569 224.73C279.087 224.729 279.594 224.878 280.029 225.159C280.463 225.439 280.806 225.839 281.015 226.309C281.224 226.78 281.291 227.301 281.207 227.808C280.265 228.199 279.364 228.681 278.518 229.249C278.122 229.519 277.819 229.904 277.652 230.351C277.485 230.798 277.461 231.286 277.584 231.747C277.707 232.209 277.971 232.621 278.339 232.927C278.707 233.234 279.162 233.42 279.641 233.46C276.268 241.978 267.391 247.76 258.218 247.814C257.373 251.624 256.131 255.336 254.513 258.891L240.898 259.02C240.847 258.87 240.802 258.716 240.757 258.566C242.018 258.633 243.282 258.546 244.522 258.308C241.15 254.422 238.553 252.447 240.441 246.96Z" fill="#F2F2F2"/>
<path d="M97.5584 117.445C97.5584 117.445 86.7722 146.616 86.5979 149.88C86.4236 153.145 83.3475 194.425 80.7676 196.823C78.1878 199.222 70.3004 236.408 76.4376 239.316C82.5747 242.225 101.937 237.407 101.937 237.407L108.673 193.481L110.961 159.829C110.961 159.829 117.927 239.074 130.561 238.841C143.196 238.608 158.592 233.833 158.592 233.833L140.908 185.842C140.908 185.842 141.158 129.027 137.059 117.567C132.96 106.108 97.5584 117.445 97.5584 117.445Z" fill="#755560"/>
<path d="M129.565 42.2896L115.119 43.6026L112.792 50.6916C112.792 50.6916 100.704 57.2799 103.38 60.273C106.057 63.2662 102.782 83.437 102.782 83.437L103.522 99.8101C103.522 99.8101 102.727 111.154 100.349 113.767C97.9706 116.381 91.7489 122.79 96.145 119.724C111.559 108.973 138.502 118.044 138.502 118.044L134.653 94.6492C134.653 94.6492 143.396 56.3462 139.946 53.1113C136.495 49.8765 133.24 49.4676 133.24 49.4676L129.565 42.2896Z" fill="#7F2847"/>
<path d="M53.6612 116.499C54.3869 116.365 55.0742 116.074 55.6746 115.648C56.275 115.222 56.774 114.67 57.1363 114.032C57.4986 113.394 57.7155 112.684 57.7717 111.954C57.8279 111.223 57.722 110.49 57.4615 109.804L81.8252 89.2919L72.8982 86.6177L50.5977 106.966C49.4663 107.476 48.563 108.381 48.0589 109.508C47.5548 110.636 47.4849 111.907 47.8626 113.082C48.2402 114.258 49.039 115.254 50.1077 115.884C51.1764 116.514 52.4408 116.732 53.6612 116.499Z" fill="#FFB8B8"/>
<path d="M115.536 62.8439C115.536 62.8439 120.336 53.0875 108.844 54.7541C97.3525 56.4207 53.7732 100.781 53.7732 100.781L61.0663 110.297L105.11 71.5703L115.536 62.8439Z" fill="#7F2847"/>
<path d="M96.8219 46.2947L51.2587 104.221C50.4704 105.227 50.116 106.501 50.273 107.766C50.43 109.03 51.0856 110.181 52.0962 110.966C62.6772 136.461 94.3326 155.367 131.571 172.527C132.583 173.31 133.868 173.662 135.142 173.507C136.416 173.351 137.576 172.7 138.367 171.696L183.93 113.769C184.719 112.764 185.074 111.49 184.917 110.225C184.76 108.96 184.104 107.809 183.093 107.025C151.843 89.5138 124.984 69.2259 103.618 45.4635C102.605 44.6813 101.321 44.3296 100.047 44.4854C98.7731 44.6412 97.6133 45.2918 96.8219 46.2947Z" fill="#E6E6E6"/>
<path d="M180.732 112.451L166.863 130.084C158.391 140.79 145.994 147.734 132.38 149.399C118.766 151.064 105.041 147.314 94.2031 138.97L55.3359 108.863C54.7602 108.417 54.3862 107.762 54.2962 107.043C54.2061 106.324 54.4073 105.598 54.8556 105.026L98.8835 49.051C99.3342 48.4805 99.9945 48.1107 100.72 48.0227C101.445 47.9347 102.175 48.1357 102.751 48.5817C122.412 73.7762 148.73 93.3824 180.256 108.617C180.831 109.063 181.204 109.718 181.293 110.436C181.382 111.155 181.181 111.88 180.732 112.451Z" fill="white"/>
<path d="M95.9126 77.918L86.8804 89.4012C86.6407 89.7053 86.2891 89.9026 85.9029 89.9497C85.5167 89.9967 85.1275 89.8897 84.8208 89.6521C84.5141 89.4146 84.315 89.0659 84.2672 88.6827C84.2194 88.2995 84.3269 87.9131 84.5661 87.6085L93.5983 76.1254C93.7169 75.9744 93.8642 75.8481 94.032 75.7536C94.1998 75.6592 94.3846 75.5985 94.5761 75.575C94.7675 75.5515 94.9617 75.5657 95.1476 75.6167C95.3335 75.6677 95.5075 75.7546 95.6595 75.8724C95.8115 75.9901 95.9387 76.1365 96.0337 76.3031C96.1287 76.4696 96.1897 76.6532 96.2133 76.8432C96.2368 77.0331 96.2223 77.2259 96.1707 77.4103C96.1191 77.5947 96.0314 77.7673 95.9126 77.918Z" fill="#CCCCCC"/>
<path d="M112.855 69.3999L93.0191 94.6178C92.9005 94.7686 92.7531 94.8947 92.5854 94.989C92.4177 95.0833 92.2328 95.1439 92.0415 95.1673C91.8502 95.1907 91.6561 95.1764 91.4703 95.1254C91.2845 95.0744 91.1107 94.9875 90.9587 94.8698C90.8068 94.7521 90.6797 94.6058 90.5847 94.4394C90.4897 94.2729 90.4286 94.0895 90.4051 93.8996C90.3815 93.7098 90.3958 93.5172 90.4473 93.3328C90.4987 93.1484 90.5862 92.9759 90.7048 92.8251L110.54 67.6072C110.659 67.4561 110.806 67.3296 110.974 67.235C111.142 67.1404 111.327 67.0796 111.518 67.056C111.71 67.0324 111.904 67.0465 112.09 67.0976C112.276 67.1486 112.45 67.2355 112.602 67.3533C112.754 67.4712 112.882 67.6176 112.977 67.7843C113.072 67.951 113.133 68.1346 113.156 68.3247C113.18 68.5148 113.165 68.7076 113.113 68.8921C113.062 69.0766 112.974 69.2491 112.855 69.3999Z" fill="#CCCCCC"/>
<path d="M79.0245 111.463C84.3643 111.463 88.693 107.167 88.693 101.868C88.693 96.5692 84.3643 92.2734 79.0245 92.2734C73.6847 92.2734 69.356 96.5692 69.356 101.868C69.356 107.167 73.6847 111.463 79.0245 111.463Z" fill="#7F2847"/>
<path d="M113.908 89.3307L89.5458 120.303C89.2915 120.56 88.9509 120.715 88.5888 120.739C88.2268 120.763 87.8686 120.653 87.5825 120.432C87.2965 120.21 87.1026 119.892 87.0379 119.538C86.9731 119.183 87.042 118.818 87.2315 118.511L111.593 87.538C111.848 87.2811 112.188 87.126 112.55 87.1023C112.912 87.0786 113.271 87.188 113.557 87.4095C113.843 87.6311 114.037 87.9493 114.101 88.3037C114.166 88.658 114.097 89.0235 113.908 89.3307Z" fill="#CCCCCC"/>
<path d="M129.712 82.2589L95.7086 125.489C95.4544 125.746 95.1137 125.901 94.7517 125.925C94.3896 125.949 94.0314 125.839 93.7454 125.618C93.4593 125.396 93.2655 125.078 93.2007 124.723C93.136 124.369 93.2049 124.004 93.3943 123.696L127.398 80.4662C127.652 80.2093 127.993 80.0542 128.355 80.0305C128.717 80.0068 129.075 80.1162 129.361 80.3378C129.647 80.5593 129.841 80.8776 129.906 81.2319C129.97 81.5862 129.901 81.9518 129.712 82.2589Z" fill="#CCCCCC"/>
<path d="M129.594 101.481L105.232 132.454C104.978 132.711 104.637 132.866 104.275 132.889C103.913 132.913 103.555 132.804 103.269 132.582C102.983 132.361 102.789 132.042 102.724 131.688C102.659 131.334 102.728 130.968 102.917 130.661L127.28 99.6884C127.534 99.4315 127.874 99.2764 128.236 99.2527C128.599 99.229 128.957 99.3383 129.243 99.5599C129.529 99.7815 129.723 100.1 129.787 100.454C129.852 100.808 129.783 101.174 129.594 101.481Z" fill="#CCCCCC"/>
<path d="M161.829 105.3L137.467 136.273C137.212 136.53 136.872 136.685 136.51 136.709C136.148 136.732 135.789 136.623 135.503 136.402C135.217 136.18 135.024 135.862 134.959 135.507C134.894 135.153 134.963 134.787 135.152 134.48L159.514 103.508C159.769 103.251 160.109 103.096 160.471 103.072C160.833 103.048 161.192 103.158 161.478 103.379C161.764 103.601 161.957 103.919 162.022 104.273C162.087 104.628 162.018 104.993 161.829 105.3Z" fill="#7F2847"/>
<path d="M145.398 94.4093L111.395 137.64C111.14 137.896 110.8 138.052 110.438 138.075C110.076 138.099 109.717 137.99 109.431 137.768C109.145 137.546 108.951 137.228 108.887 136.874C108.822 136.52 108.891 136.154 109.08 135.847L143.084 92.6166C143.338 92.3597 143.679 92.2046 144.041 92.1809C144.403 92.1572 144.761 92.2666 145.047 92.4881C145.333 92.7097 145.527 93.028 145.592 93.3823C145.656 93.7366 145.587 94.1021 145.398 94.4093Z" fill="#CCCCCC"/>
<path d="M105.347 23.9889C105.346 26.3196 105.921 28.6149 107.023 30.6733C108.125 32.7317 109.719 34.4903 111.665 35.7946C113.612 37.0989 115.851 37.9091 118.187 38.1541C120.522 38.3991 122.883 38.0714 125.061 37.1997C127.239 36.328 129.169 34.9391 130.68 33.1547C132.191 31.3704 133.237 29.2452 133.727 26.9658C134.218 24.6864 134.136 22.3224 133.491 20.0814C132.846 17.8404 131.656 15.7909 130.026 14.1128L129.957 14.0445C129.842 13.9248 129.727 13.8052 129.607 13.6913C129.606 13.6913 129.605 13.6912 129.605 13.6909C129.604 13.6906 129.603 13.6902 129.603 13.6897C129.602 13.6891 129.602 13.6885 129.602 13.6878C129.601 13.6871 129.601 13.6863 129.601 13.6856C129.452 13.5489 129.303 13.4122 129.148 13.2812C127.074 11.4774 124.521 10.3047 121.794 9.90372C119.066 9.50269 116.28 9.89028 113.768 11.0201C111.257 12.1499 109.127 13.974 107.634 16.274C106.14 18.5741 105.346 21.2526 105.347 23.9889Z" fill="#755560"/>
<path d="M123.23 39.223C129.875 39.223 135.262 33.8774 135.262 27.2831C135.262 20.6889 129.875 15.3433 123.23 15.3433C116.585 15.3433 111.198 20.6889 111.198 27.2831C111.198 33.8774 116.585 39.223 123.23 39.223Z" fill="#FFB8B8"/>
<path d="M110.404 30.4655C109.228 25.2061 110.928 19.3138 114.634 15.8026C116.498 14.0716 118.816 12.8975 121.322 12.4154C123.829 11.9334 126.421 12.1628 128.802 13.0774C129.104 13.1986 129.407 13.3313 129.704 13.4697L129.842 13.5343V13.5544C129.869 13.5728 129.896 13.5921 129.922 13.6117C129.978 13.6639 130.047 13.7013 130.121 13.7206C131.166 13.6934 132.204 13.8857 133.169 14.2847C134.134 14.6837 135.002 15.2805 135.718 16.036C137.583 18.0439 138.461 21.2889 138.192 25.173L138.184 25.2945L138.079 25.359C136.668 26.2469 135.203 27.0485 133.692 27.7593C128.41 30.224 123.588 30.6807 118.954 29.1537L118.869 29.1257L116.924 25.8906C116.524 28.1219 116.738 35.5229 114.446 35.9239L110.453 30.6886L110.404 30.4655Z" fill="#755560"/>
<path d="M85.0759 40.861C89.1703 38.7639 83.9045 31.1524 84.9626 26.7022C86.0207 22.252 93.6405 20.8207 94.126 16.2737C94.6114 11.7267 95.7533 7.03702 98.7768 3.58674C100.709 1.38202 103.556 -0.245585 106.487 0.0305703C107.478 0.124004 108.438 0.428446 109.301 0.923162C110.163 1.41788 110.908 2.09125 111.485 2.8974C112.061 3.70356 112.456 4.62356 112.642 5.59475C112.828 6.56594 112.801 7.5655 112.562 8.52535C113.397 7.3519 115.557 7.60623 116.091 8.94099C116.567 10.1276 115.517 11.5649 114.281 11.6699C112.664 13.6513 110.813 15.7541 108.28 16.1538C107.876 16.2457 107.457 16.2455 107.054 16.1531C106.65 16.0607 106.273 15.8785 105.951 15.6203C105.355 15.0524 105.309 13.9171 106.016 13.4927C102.832 14.7475 100.966 18.1629 100.494 21.5294C100.022 24.8958 100.675 28.3021 101.106 31.6741C101.536 35.046 101.722 38.5932 100.389 41.7245C98.8152 45.4242 95.1911 48.0758 91.236 48.9262C87.2808 49.7766 83.0687 48.9455 79.4887 47.073C75.9086 45.2004 72.9232 42.3418 70.4844 39.1369C74.6854 42.0972 80.4975 43.2062 85.0759 40.861Z" fill="#755560"/>
<path d="M117.482 26.5111C113.276 33.7029 121.197 45.8206 113.214 48.337L113.871 47.6843C118.69 41.802 108.618 29.3517 113.437 23.4694C114.186 22.6065 114.828 21.6584 115.352 20.645" fill="#755560"/>
<path d="M110.966 30.3561C110.966 30.3561 114.53 17.1539 129.808 14.1067C129.825 14.1011 129.882 14.0783 129.957 14.0441C130.003 14.0156 130.06 13.9871 130.118 13.9587C129.946 13.8618 129.779 13.7764 129.607 13.6909L129.605 13.6905L129.603 13.6893L129.602 13.6874L129.601 13.6852C129.452 13.5485 129.303 13.4118 129.148 13.2808L128.712 13.298C128.712 13.298 113.382 10.8888 110.966 30.3561Z" fill="#FD6584"/>
<path d="M2.54826e-06 259.431C-0.000222326 259.506 0.0144381 259.58 0.0431327 259.649C0.0718274 259.718 0.113996 259.781 0.167208 259.834C0.220421 259.887 0.283625 259.928 0.353193 259.957C0.422761 259.985 0.497314 260 0.572566 260H344.713C344.865 260 345.01 259.94 345.118 259.833C345.225 259.727 345.285 259.582 345.285 259.431C345.285 259.281 345.225 259.136 345.118 259.03C345.01 258.923 344.865 258.863 344.713 258.863H0.572537C0.497288 258.863 0.422741 258.878 0.353178 258.906C0.283615 258.935 0.22041 258.976 0.167201 259.029C0.113992 259.082 0.0718267 259.145 0.0431327 259.214C0.0144388 259.283 -0.000219114 259.357 2.54826e-06 259.431Z" fill="#CCCCCC"/>
</svg>
