<svg width="785" height="785" viewBox="0 0 785 785" fill="none" xmlns="http://www.w3.org/2000/svg">
<g filter="url(#filter0_ii_14_93)">
<circle cx="392.5" cy="392.5" r="392.5" fill="white"/>
</g>
<path d="M184.443 449.636C183.385 449.686 182.338 449.403 181.444 448.825C180.549 448.247 179.851 447.402 179.442 446.405C179.034 445.408 178.936 444.307 179.161 443.251C179.386 442.195 179.924 441.236 180.701 440.502C180.831 439.974 180.924 439.595 181.055 439.067C181.008 438.952 180.961 438.837 180.914 438.722C176.161 427.153 160.052 427.233 155.339 438.819C151.156 449.102 145.831 459.403 144.519 470.276C143.942 475.082 144.186 479.954 145.239 484.675C135.415 462.8 130.313 439.024 130.281 414.959C130.278 408.921 130.607 402.887 131.265 396.886C131.809 391.966 132.563 387.081 133.528 382.231C138.794 355.917 150.1 331.254 166.517 310.266C174.463 305.84 180.889 299.035 184.929 290.767C186.392 287.795 187.427 284.622 188 281.347C187.104 281.467 186.193 281.542 185.296 281.602C185.017 281.617 184.723 281.632 184.444 281.647L184.339 281.652C183.354 281.697 182.377 281.451 181.526 280.942C180.674 280.434 179.986 279.685 179.542 278.787C179.098 277.888 178.918 276.877 179.024 275.876C179.129 274.876 179.516 273.927 180.138 273.146C180.525 272.66 180.912 272.174 181.299 271.688C181.887 270.938 182.49 270.203 183.077 269.453C183.145 269.382 183.209 269.307 183.268 269.228C183.944 268.373 184.62 267.533 185.296 266.678C184.062 264.723 182.403 263.086 180.447 261.894C173.673 257.844 164.327 260.649 159.434 266.903C154.526 273.158 153.601 281.932 155.305 289.747C156.76 296.437 159.934 302.571 163.505 308.406C163.137 308.886 162.755 309.351 162.388 309.831C155.672 318.645 149.819 328.11 144.913 338.089C146.301 327.021 144.251 313.687 140.758 305.091C136.78 295.297 129.326 287.049 122.761 278.583C114.875 268.413 98.7056 272.851 97.3164 285.743C97.3029 285.868 97.2898 285.992 97.277 286.117C98.2521 286.679 99.2066 287.275 100.14 287.905C101.314 288.705 102.223 289.848 102.749 291.185C103.274 292.521 103.392 293.989 103.087 295.395C102.782 296.801 102.068 298.08 101.038 299.065C100.009 300.05 98.7115 300.694 97.317 300.914L97.1742 300.936C97.5215 304.523 98.1356 308.078 99.0109 311.571C101.547 321.32 106.03 330.429 112.177 338.327C118.324 346.225 126.003 352.741 134.733 357.468C135.306 357.768 135.864 358.068 136.438 358.353C131.508 372.613 128.416 387.466 127.239 402.54C126.573 411.433 126.612 420.367 127.356 429.254C127.342 429.148 127.327 429.043 127.312 428.938C125.431 419.057 120.267 410.14 112.691 403.695C101.44 394.261 85.5433 390.786 73.4049 383.203C67.5617 379.552 60.0742 384.27 61.094 391.185C61.1103 391.295 61.1268 391.405 61.1436 391.516C62.9531 392.268 64.7149 393.135 66.4189 394.111C67.3939 394.672 68.3484 395.268 69.2823 395.898C70.4556 396.699 71.3646 397.842 71.8904 399.178C72.4163 400.515 72.5343 401.982 72.2291 403.389C71.9239 404.795 71.2097 406.074 70.18 407.059C69.1504 408.043 67.8533 408.688 66.4588 408.907L66.3159 408.93C66.2131 408.945 66.1249 408.96 66.0222 408.975C69.1139 416.51 73.4533 423.446 78.8502 429.478C85.5173 436.781 93.5753 442.616 102.53 446.627C111.485 450.637 121.148 452.739 130.927 452.802H130.942C133.596 464.576 137.442 476.037 142.418 487H183.415C183.562 486.535 183.695 486.055 183.827 485.59C180.032 485.834 176.222 485.602 172.483 484.9C175.524 481.09 178.566 477.251 181.608 473.441C181.676 473.37 181.74 473.294 181.799 473.216C183.342 471.266 184.899 469.331 186.442 467.381L186.443 467.379C186.525 461.402 185.854 455.439 184.444 449.637L184.443 449.636Z" fill="#F2F2F2"/>
<path d="M672.03 488.771L61.9701 489C61.7128 489 61.4661 488.907 61.2841 488.741C61.1022 488.574 61 488.349 61 488.114C61 487.879 61.1022 487.654 61.2841 487.488C61.4661 487.322 61.7128 487.229 61.9701 487.229L672.03 487C672.287 487 672.534 487.093 672.716 487.259C672.898 487.426 673 487.651 673 487.886C673 488.121 672.898 488.346 672.716 488.512C672.534 488.678 672.287 488.771 672.03 488.771Z" fill="#CACACA"/>
<path d="M577.592 488.641C549.996 489.84 534.393 488.968 514.276 471.026C500.58 470.652 489.693 460.474 490.007 448.339C490.321 436.205 501.719 426.636 515.415 427.011L565.145 429.433C578.84 429.807 604.311 428.942 603.997 441.077C603.843 447.035 603.84 454.761 603.302 462.855C602.859 469.652 599.991 476.042 595.247 480.8C590.502 485.559 584.216 488.351 577.592 488.641Z" fill="#755560"/>
<path d="M489 601.602L474.281 604L458 548.539L479.724 545L489 601.602Z" fill="#FFB6B6"/>
<path d="M482.73 486.554C509.514 493.278 529.292 485.706 545.582 486.687C554.842 470.735 584.4 450.472 568.272 441.943C559.291 437.193 467.988 426.244 456.003 438.881C425.182 471.377 463.448 574 463.448 574L484.732 573.72L491.532 563.81L486.055 553.011L491.236 544.181L485.306 535.085L482.73 486.554Z" fill="#755560"/>
<path d="M498 612.741L488.72 615.319L484.718 606.687L482.821 616.959L458.209 623.798C457.029 624.126 455.78 624.053 454.642 623.592C453.505 623.131 452.539 622.304 451.886 621.232C451.234 620.161 450.928 618.901 451.014 617.637C451.1 616.373 451.574 615.17 452.365 614.205L468.385 594.656L466.013 585.464L487.017 581L498 612.741Z" fill="#755560"/>
<path d="M606 583.81L595.597 594L552 558.04L567.354 543L606 583.81Z" fill="#FFB6B6"/>
<path d="M521.838 469.336C546.362 478.963 567.81 468.257 589 455.847C587.737 437.402 587.031 410.807 569.035 413.144C559.013 414.446 476.183 428.396 473.363 445.698C466.11 490.191 570.071 575 570.071 575L587.404 562.453L587.48 550.389L576.973 544.7L576.32 534.459L566.389 530.429L521.838 469.336Z" fill="#755560"/>
<path d="M620 587.525L613.817 595.079L605.846 590.365L609.887 599.881L593.488 619.917C592.702 620.877 591.641 621.552 590.46 621.842C589.279 622.131 588.039 622.022 586.922 621.528C585.805 621.034 584.87 620.183 584.252 619.098C583.634 618.013 583.366 616.752 583.488 615.497L585.943 590.105L579 583.976L593.741 568L620 587.525Z" fill="#755560"/>
<path d="M508.696 432.197C506.969 432.197 505.988 431.852 505.608 431.112C505.051 430.027 501.491 428.609 502.611 426.967C503.392 425.823 505.278 424.29 504.552 423.408C501.755 420.009 494.774 322.509 493.129 309.208C492.725 305.091 493.273 300.934 494.729 297.072C499.338 283.779 505.629 279.694 518.161 271.557C519.178 270.896 520.238 270.206 521.339 269.487C522.764 268.555 522.684 270.731 522.6 267.459C522.507 263.822 522.411 260.061 524.161 257.71L524.275 257.557L524.458 257.513C528.692 256.517 542.93 254.668 551.362 257.527L551.478 257.567L551.565 257.655C553.568 259.694 553.751 263.644 553.927 267.463C554.072 270.599 554.209 268.293 555.342 269.579C559.674 274.494 566.2 277.334 571.644 278.945C575.056 279.943 578.044 282.071 580.134 284.993C582.225 287.915 583.298 291.463 583.183 295.075C582.593 313.272 583.057 342.045 580.006 362.321C574.928 396.068 621.286 444.803 594.734 445.804C594.802 445.911 594.839 446.033 594.843 446.16C594.847 446.286 594.816 446.411 594.755 446.521C592.86 450.126 515.207 432.197 508.696 432.197Z" fill="#E6E6E6"/>
<path d="M535.5 255C552.897 255 567 240.449 567 222.5C567 204.551 552.897 190 535.5 190C518.103 190 504 204.551 504 222.5C504 240.449 518.103 255 535.5 255Z" fill="#755560"/>
<path d="M538.177 257.576C550.727 257.213 560.613 246.536 560.257 233.729C559.902 220.922 549.439 210.833 536.889 211.196C524.338 211.559 514.453 222.236 514.808 235.043C515.164 247.85 525.626 257.939 538.177 257.576Z" fill="#FFB6B6"/>
<path d="M537.487 199.008L528.279 199.27C522.476 199.44 516.977 201.913 512.99 206.146C509.002 210.379 506.85 216.026 507.008 221.849L507.014 222.054L507.182 222.159C512.187 225.482 518.094 227.168 524.093 226.987L524.611 226.972L529.699 226.741C530.554 224.53 530.84 222.138 530.53 219.786C531.299 222.015 531.899 224.299 532.325 226.619L555.154 225.576C556.482 225.51 557.732 224.926 558.637 223.948C559.542 222.97 560.031 221.676 559.998 220.342C559.827 214.52 557.361 209.004 553.14 205.004C548.92 201.004 543.291 198.848 537.487 199.008Z" fill="#755560"/>
<path d="M519.666 193.283C517.592 195.91 514.262 197.004 511.269 198.427C505.99 200.991 501.399 204.839 497.895 209.637C494.392 214.435 492.08 220.038 491.162 225.961C490.456 230.784 490.703 235.749 489.509 240.466C488.324 245.182 485.194 249.867 480.544 250.814C477.397 251.461 474.193 250.299 471.184 249.148C469.53 248.52 467.875 247.89 466.221 247.257C467.806 242.811 469.388 238.364 470.968 233.918C468.348 238.147 465.274 242.06 461.804 245.584C455.874 243.327 449.94 241.07 444 238.813C458.45 238.449 455.587 224.116 458.421 209.57C459.978 201.576 474.959 195.759 477.717 188.116C479.207 183.971 481.822 180.352 485.253 177.685C488.683 175.019 492.786 173.418 497.074 173.071C501.363 172.725 505.659 173.647 509.454 175.73C513.248 177.812 516.382 180.968 518.484 184.822C521.484 185.95 521.701 190.69 519.666 193.283Z" fill="#755560"/>
<path d="M521 203C527.627 203 533 197.627 533 191C533 184.373 527.627 179 521 179C514.373 179 509 184.373 509 191C509 197.627 514.373 203 521 203Z" fill="#755560"/>
<path d="M562.918 376H508.082C506.205 375.998 504.404 375.242 503.077 373.898C501.749 372.554 501.002 370.732 501 368.831V309.169C501.002 307.268 501.749 305.446 503.077 304.102C504.404 302.758 506.205 302.002 508.082 302H562.918C564.795 302.002 566.596 302.758 567.923 304.102C569.251 305.446 569.998 307.268 570 309.169V368.831C569.998 370.732 569.251 372.554 567.923 373.898C566.595 375.242 564.795 375.998 562.918 376Z" fill="#3F3D56"/>
<path d="M510 315C512.209 315 514 313.209 514 311C514 308.791 512.209 307 510 307C507.791 307 506 308.791 506 311C506 313.209 507.791 315 510 315Z" fill="#E6E6E6"/>
<path d="M509.5 313C510.881 313 512 311.881 512 310.5C512 309.119 510.881 308 509.5 308C508.119 308 507 309.119 507 310.5C507 311.881 508.119 313 509.5 313Z" fill="#3F3D56"/>
<path d="M527.049 373.373L489.791 364L484 383.019C484 383.019 524.084 385.963 525.582 385.977C526.702 387.55 528.278 388.749 530.1 389.414C531.921 390.08 533.904 390.181 535.785 389.704C537.666 389.227 539.357 388.196 540.634 386.745C541.911 385.294 542.714 383.493 542.937 381.579C543.159 379.666 542.791 377.731 541.881 376.029C540.971 374.328 539.562 372.941 537.84 372.051C536.118 371.162 534.164 370.812 532.237 371.048C530.311 371.284 528.501 372.095 527.049 373.373Z" fill="#FFB6B6"/>
<path d="M502 284C475.259 298.515 463.541 330.873 447.135 359.31C446.796 362.417 447.099 365.561 448.024 368.542C448.95 371.524 450.478 374.276 452.51 376.623C454.543 378.97 457.035 380.861 459.828 382.174C462.62 383.487 465.652 384.194 468.729 384.249L500.824 385L496.801 364.884L486.066 358.688L498.755 327.508L502 284Z" fill="#E6E6E6"/>
<path d="M541.603 315.935L567 347.161L556.512 364C556.512 364 530.976 323.55 530.4 322.151C528.512 321.704 526.802 320.688 525.496 319.235C524.191 317.783 523.351 315.963 523.088 314.017C522.826 312.07 523.152 310.089 524.025 308.334C524.898 306.58 526.276 305.136 527.977 304.192C529.678 303.249 531.621 302.85 533.55 303.05C535.479 303.25 537.302 304.039 538.779 305.312C540.256 306.585 541.317 308.282 541.821 310.179C542.326 312.076 542.25 314.083 541.603 315.935Z" fill="#FFB6B6"/>
<path d="M579.799 285.202C587.566 280.844 610.222 348.052 586.382 386.276C583.661 387.772 580.663 388.675 577.579 388.927C574.495 389.179 571.393 388.776 568.472 387.742C565.55 386.708 562.873 385.066 560.612 382.922C558.351 380.778 556.556 378.178 555.341 375.29L543 344.624L562.774 338.224L572.217 349.226L570.903 327.338L582.142 296.23L579.799 285.202Z" fill="#E6E6E6"/>
<path d="M306.304 284.188C328.395 284.188 346.304 266.28 346.304 244.188C346.304 222.097 328.395 204.188 306.304 204.188C284.212 204.188 266.304 222.097 266.304 244.188C266.304 266.28 284.212 284.188 306.304 284.188Z" fill="#7F2847"/>
<path opacity="0.988" fill-rule="evenodd" clip-rule="evenodd" d="M335.747 230.381C335.747 230.877 335.747 231.374 335.747 231.871C335.11 233.528 334.29 235.094 333.287 236.57C331.293 239.303 329.271 242.015 327.221 244.707C326.954 245.165 326.687 245.624 326.42 246.082C326.089 247.075 326.28 247.953 326.992 248.718C329.518 251.018 331.883 253.463 334.088 256.053C334.794 256.974 335.348 257.967 335.747 259.033C335.747 259.415 335.747 259.797 335.747 260.179C335.329 260.917 334.68 261.318 333.802 261.383C330.821 261.455 327.846 261.55 324.875 261.669C323.223 261.494 321.774 260.864 320.527 259.778C318.959 258.17 317.433 256.527 315.949 254.85C315.388 254.292 314.72 253.929 313.946 253.761C313.131 254.042 312.52 254.577 312.115 255.366C311.94 255.855 311.787 256.352 311.658 256.856C311.556 257.966 311.441 259.074 311.314 260.179C311.105 260.695 310.742 261.058 310.227 261.268C304.938 262.194 300.055 261.201 295.579 258.288C292.866 256.527 290.558 254.33 288.655 251.698C284.031 245.456 280.197 238.733 277.154 231.527C277.154 231.107 277.154 230.686 277.154 230.266C277.449 229.908 277.831 229.698 278.299 229.636C281.389 229.553 284.479 229.514 287.568 229.521C288.358 229.678 288.988 230.079 289.456 230.725C291.2 234.905 293.298 238.878 295.751 242.644C296.396 243.502 297.216 244.113 298.211 244.478C298.597 244.444 298.921 244.291 299.184 244.019C299.526 243.411 299.755 242.761 299.87 242.071C300.408 239.162 300.389 236.259 299.813 233.361C299.454 231.55 298.348 230.595 296.494 230.495C296.514 230.188 296.629 229.921 296.838 229.693C297.738 228.761 298.844 228.284 300.157 228.26C302.985 227.978 305.808 227.978 308.625 228.26C310.46 228.303 311.433 229.239 311.543 231.068C311.553 234.106 311.496 237.143 311.372 240.18C311.383 240.967 311.44 241.75 311.543 242.529C311.664 243.465 312.16 244.076 313.031 244.363C313.837 243.901 314.562 243.328 315.205 242.644C317.908 239.066 320.083 235.169 321.728 230.954C321.953 230.231 322.43 229.792 323.159 229.636C326.613 229.614 330.065 229.557 333.515 229.464C334.396 229.476 335.14 229.782 335.747 230.381Z" fill="white"/>
<path d="M409.646 168C431.737 168 449.646 150.091 449.646 128C449.646 105.909 431.737 88 409.646 88C387.554 88 369.646 105.909 369.646 128C369.646 150.091 387.554 168 409.646 168Z" fill="#7F2847"/>
<path d="M427.526 104.158H391.765C390.265 104.158 388.825 104.755 387.764 105.816C386.702 106.877 386.106 108.317 386.106 109.818V145.578C386.106 147.079 386.702 148.519 387.764 149.58C388.825 150.641 390.265 151.237 391.765 151.237H427.526C429.027 151.237 430.466 150.641 431.528 149.58C432.589 148.519 433.185 147.079 433.185 145.578V109.818C433.185 108.317 432.589 106.877 431.528 105.816C430.466 104.755 429.027 104.158 427.526 104.158ZM409.646 140.252C407.163 140.252 404.735 139.516 402.671 138.137C400.606 136.757 398.997 134.796 398.047 132.502C397.097 130.208 396.848 127.684 397.332 125.249C397.817 122.813 399.013 120.576 400.768 118.821C402.524 117.065 404.761 115.869 407.196 115.385C409.632 114.9 412.156 115.149 414.45 116.099C416.744 117.049 418.705 118.659 420.084 120.723C421.464 122.788 422.2 125.215 422.2 127.698C422.2 131.028 420.877 134.221 418.523 136.575C416.169 138.93 412.975 140.252 409.646 140.252ZM423.769 115.144C423.149 115.144 422.542 114.959 422.026 114.615C421.509 114.27 421.107 113.78 420.87 113.206C420.632 112.633 420.57 112.001 420.691 111.393C420.812 110.784 421.111 110.225 421.55 109.786C421.989 109.347 422.548 109.048 423.157 108.927C423.766 108.806 424.397 108.868 424.97 109.105C425.544 109.343 426.034 109.745 426.379 110.261C426.724 110.777 426.908 111.384 426.908 112.005C426.908 112.837 426.577 113.636 425.989 114.224C425.4 114.813 424.602 115.144 423.769 115.144Z" fill="white"/>
<defs>
<filter id="filter0_ii_14_93" x="-10" y="-10" width="805" height="805" filterUnits="userSpaceOnUse" color-interpolation-filters="sRGB">
<feFlood flood-opacity="0" result="BackgroundImageFix"/>
<feBlend mode="normal" in="SourceGraphic" in2="BackgroundImageFix" result="shape"/>
<feColorMatrix in="SourceAlpha" type="matrix" values="0 0 0 0 0 0 0 0 0 0 0 0 0 0 0 0 0 0 127 0" result="hardAlpha"/>
<feOffset dx="10" dy="10"/>
<feGaussianBlur stdDeviation="25"/>
<feComposite in2="hardAlpha" operator="arithmetic" k2="-1" k3="1"/>
<feColorMatrix type="matrix" values="0 0 0 0 0.498039 0 0 0 0 0.156863 0 0 0 0 0.278431 0 0 0 0.1 0"/>
<feBlend mode="normal" in2="shape" result="effect1_innerShadow_14_93"/>
<feColorMatrix in="SourceAlpha" type="matrix" values="0 0 0 0 0 0 0 0 0 0 0 0 0 0 0 0 0 0 127 0" result="hardAlpha"/>
<feOffset dx="-10" dy="-10"/>
<feGaussianBlur stdDeviation="25"/>
<feComposite in2="hardAlpha" operator="arithmetic" k2="-1" k3="1"/>
<feColorMatrix type="matrix" values="0 0 0 0 0.498039 0 0 0 0 0.156863 0 0 0 0 0.278431 0 0 0 0.1 0"/>
<feBlend mode="normal" in2="effect1_innerShadow_14_93" result="effect2_innerShadow_14_93"/>
</filter>
</defs>
</svg>
